# xmcd CD database file
#
# Track frame offsets:
#	150
#	23876
#	42508
#	61403
#	89421
#	100104
#	110807
#	125383
#	144614
#	157252
#	173557
#	185815
#	216325
#	231293
#	246949
#	262294
#	282976
#	294318
#
# Disc length: 4202 seconds
#
# Revision: 1
# Processed by: cddbd v1.5.2PL0 Copyright (c) Steve Scherf et al.
# Submitted via: Feurio! 1.68 - http://www.feurio.com
#
DISCID=1f106812
DTITLE=ZZ Top - Big Foot In The Blues
DYEAR=1900
DGENRE=Bluesrock
TTITLE0=Brown Sugar
TTITLE1=Just Got Back From Baby's
TTITLE2=A Fool For Your Stockings
TTITLE3=I Need You Tonight
TTITLE4=She Loves My Automobil
TTITLE5=Hi Fi Mama
TTITLE6=Hot, Blue And Righteous
TTITLE7=My Head's In Mississippi
TTITLE8=Lowdown In The Street
TTITLE9=If I Could Only Flag Her Down
TTITLE10=Apologies To Pearly
TTITLE11=Sure Got Cold After The Rain Fall
TTITLE12=Bar-B-Q
TTITLE13=Old Man
TTITLE14=Certified Blues
TTITLE15=2000 Blues
TTITLE16=Heaven, Hell Or Houston
TTITLE17=Blue Jean Blues
EXTD=
EXTT0=
EXTT1=
EXTT2=
EXTT3=
EXTT4=
EXTT5=
EXTT6=
EXTT7=
EXTT8=
EXTT9=
EXTT10=
EXTT11=
EXTT12=
EXTT13=
EXTT14=
EXTT15=
EXTT16=
EXTT17=
PLAYORDER=
